<mxfile>
    <diagram id="AmlEpA3_1aYCrx1T0YUR" name="Page-1">
        <mxGraphModel dx="1017" dy="744" grid="0" gridSize="10" guides="1" tooltips="1" connect="1" arrows="1" fold="1" page="1" pageScale="1" pageWidth="1169" pageHeight="827" background="#ffffff" math="0" shadow="0">
            <root>
                <mxCell id="0"/>
                <mxCell id="1" parent="0"/>
                <mxCell id="2" value="&lt;font style=&quot;font-size: 16px&quot;&gt;Elève / Parent &lt;br&gt;d'élève&lt;/font&gt;" style="shape=umlActor;verticalLabelPosition=bottom;verticalAlign=top;html=1;strokeWidth=3;strokeColor=#C64754;fillColor=#f9a6ae;fontColor=#830C17;fontStyle=1" parent="1" vertex="1">
                    <mxGeometry x="80" y="240" width="30" height="60" as="geometry"/>
                </mxCell>
                <mxCell id="9" value="&lt;font size=&quot;1&quot; color=&quot;#830c17&quot;&gt;&lt;b style=&quot;font-size: 28px&quot;&gt;Package &lt;i&gt;&quot;S'authentifier / S'inscrire&quot;&lt;/i&gt;&lt;/b&gt;&lt;/font&gt;" style="text;html=1;strokeColor=none;fillColor=none;align=center;verticalAlign=middle;whiteSpace=wrap;rounded=0;fontColor=#660000;" parent="1" vertex="1">
                    <mxGeometry x="35" y="60" width="480" height="20" as="geometry"/>
                </mxCell>
                <mxCell id="10" value="" style="rounded=1;whiteSpace=wrap;html=1;fontColor=#660000;strokeWidth=3;strokeColor=none;fillColor=#F9A6AE;gradientColor=#fee7ea;gradientDirection=north;arcSize=2;" parent="1" vertex="1">
                    <mxGeometry x="241" y="140" width="680" height="620" as="geometry"/>
                </mxCell>
                <mxCell id="11" value="&lt;font style=&quot;font-size: 16px&quot;&gt;Admin&lt;/font&gt;" style="shape=umlActor;verticalLabelPosition=bottom;verticalAlign=top;html=1;strokeWidth=3;strokeColor=#C64754;fillColor=#f9a6ae;fontColor=#830C17;fontStyle=1" parent="1" vertex="1">
                    <mxGeometry x="80" y="577" width="30" height="60" as="geometry"/>
                </mxCell>
                <mxCell id="12" value="&lt;font style=&quot;font-size: 16px&quot;&gt;Tuteur&lt;br&gt;&lt;/font&gt;" style="shape=umlActor;verticalLabelPosition=bottom;verticalAlign=top;html=1;strokeWidth=3;strokeColor=#C64754;fillColor=#f9a6ae;fontColor=#830C17;fontStyle=1" parent="1" vertex="1">
                    <mxGeometry x="80" y="410" width="30" height="60" as="geometry"/>
                </mxCell>
                <mxCell id="13" value="&lt;font color=&quot;#830c17&quot;&gt;&lt;span style=&quot;font-size: 20px&quot;&gt;&lt;b&gt;Appli web&lt;i&gt; Learn@Home&lt;/i&gt;&lt;/b&gt;&lt;/span&gt;&lt;/font&gt;" style="text;html=1;strokeColor=none;fillColor=none;align=center;verticalAlign=middle;whiteSpace=wrap;rounded=0;fontColor=#660000;" parent="1" vertex="1">
                    <mxGeometry x="660" y="150" width="250" height="20" as="geometry"/>
                </mxCell>
                <mxCell id="16" value="&lt;font style=&quot;font-size: 17px&quot;&gt;&lt;b&gt;S'authentifier&lt;/b&gt;&lt;/font&gt;" style="ellipse;whiteSpace=wrap;html=1;rounded=1;strokeWidth=3;fontColor=#0e2723;strokeColor=none;fillColor=#defefa;gradientColor=#7dbbb2;" parent="1" vertex="1">
                    <mxGeometry x="315" y="198" width="200" height="70" as="geometry"/>
                </mxCell>
                <mxCell id="18" value="&lt;font style=&quot;font-size: 17px&quot;&gt;&lt;b&gt;Récupérer son &lt;br&gt;mot de passe&lt;br&gt;&lt;/b&gt;&lt;/font&gt;" style="ellipse;whiteSpace=wrap;html=1;rounded=1;strokeWidth=3;fontColor=#0e2723;strokeColor=none;fillColor=#defefa;gradientColor=#7dbbb2;" parent="1" vertex="1">
                    <mxGeometry x="315" y="318" width="200" height="70" as="geometry"/>
                </mxCell>
                <mxCell id="19" value="&lt;font style=&quot;font-size: 17px&quot;&gt;&lt;b&gt;Faire une demande&lt;br&gt;d'inscription&lt;br&gt;&lt;/b&gt;&lt;/font&gt;" style="ellipse;whiteSpace=wrap;html=1;rounded=1;strokeWidth=3;fontColor=#0e2723;strokeColor=none;fillColor=#defefa;gradientColor=#7dbbb2;" parent="1" vertex="1">
                    <mxGeometry x="315" y="428" width="200" height="70" as="geometry"/>
                </mxCell>
                <mxCell id="20" value="&lt;font style=&quot;font-size: 17px&quot;&gt;&lt;b&gt;Créer un compte&lt;br&gt;&lt;/b&gt;&lt;/font&gt;" style="ellipse;whiteSpace=wrap;html=1;rounded=1;strokeWidth=3;fontColor=#0e2723;strokeColor=none;fillColor=#defefa;gradientColor=#7dbbb2;" parent="1" vertex="1">
                    <mxGeometry x="315" y="538" width="200" height="70" as="geometry"/>
                </mxCell>
                <mxCell id="21" value="&lt;font style=&quot;font-size: 17px&quot;&gt;&lt;b&gt;Envoyer un mail&lt;br&gt;&lt;/b&gt;&lt;span style=&quot;color: rgba(0 , 0 , 0 , 0) ; font-family: monospace ; font-size: 0px&quot;&gt;%3CmxGraphModel%3E%3Croot%3E%3CmxCell%20id%3D%220%22%2F%3E%3CmxCell%20id%3D%221%22%20parent%3D%220%22%2F%3E%3CmxCell%20id%3D%222%22%20value%3D%22%26lt%3Bfont%20style%3D%26quot%3Bfont-size%3A%2017px%26quot%3B%26gt%3B%26lt%3Bb%26gt%3BR%C3%A9cup%C3%A9rer%20son%26lt%3Bbr%26gt%3Bmot%20de%20passe%26lt%3Bbr%26gt%3B%26lt%3B%2Fb%26gt%3B%26lt%3B%2Ffont%26gt%3B%22%20style%3D%22ellipse%3BwhiteSpace%3Dwrap%3Bhtml%3D1%3Brounded%3D1%3BstrokeWidth%3D3%3BfontColor%3D%230e2723%3BstrokeColor%3Dnone%3BfillColor%3D%23defefa%3BgradientColor%3D%237dbbb2%3B%22%20vertex%3D%221%22%20parent%3D%221%22%3E%3CmxGeometry%20x%3D%22315%22%20y%3D%22280%22%20width%3D%22200%22%20height%3D%2270%22%20as%3D%22geometry%22%2F%3E%3C%2FmxCell%3E%3C%2Froot%3E%3C%2FmxGraphModel%3E&lt;/span&gt;&lt;b&gt;à l'utilisateur&lt;br&gt;&lt;/b&gt;&lt;/font&gt;" style="ellipse;whiteSpace=wrap;html=1;rounded=1;strokeWidth=3;fontColor=#0e2723;strokeColor=none;fillColor=#defefa;gradientColor=#7dbbb2;" parent="1" vertex="1">
                    <mxGeometry x="638" y="318" width="200" height="70" as="geometry"/>
                </mxCell>
                <mxCell id="22" value="&lt;font style=&quot;font-size: 17px&quot;&gt;&lt;b&gt;Envoyer un mail&lt;br&gt;&lt;/b&gt;&lt;span style=&quot;color: rgba(0 , 0 , 0 , 0) ; font-family: monospace ; font-size: 0px&quot;&gt;%3CmxGraphModel%3E%3Croot%3E%3CmxCell%20id%3D%220%22%2F%3E%3CmxCell%20id%3D%221%22%20parent%3D%220%22%2F%3E%3CmxCell%20id%3D%222%22%20value%3D%22%26lt%3Bfont%20style%3D%26quot%3Bfont-size%3A%2017px%26quot%3B%26gt%3B%26lt%3Bb%26gt%3BR%C3%A9cup%C3%A9rer%20son%26lt%3Bbr%26gt%3Bmot%20de%20passe%26lt%3Bbr%26gt%3B%26lt%3B%2Fb%26gt%3B%26lt%3B%2Ffont%26gt%3B%22%20style%3D%22ellipse%3BwhiteSpace%3Dwrap%3Bhtml%3D1%3Brounded%3D1%3BstrokeWidth%3D3%3BfontColor%3D%230e2723%3BstrokeColor%3Dnone%3BfillColor%3D%23defefa%3BgradientColor%3D%237dbbb2%3B%22%20vertex%3D%221%22%20parent%3D%221%22%3E%3CmxGeometry%20x%3D%22315%22%20y%3D%22280%22%20width%3D%22200%22%20height%3D%2270%22%20as%3D%22geometry%22%2F%3E%3C%2FmxCell%3E%3C%2Froot%3E%3C%2FmxGraphModel%3E&lt;/span&gt;&lt;b&gt;au back office&lt;br&gt;&lt;/b&gt;&lt;/font&gt;" style="ellipse;whiteSpace=wrap;html=1;rounded=1;strokeWidth=3;fontColor=#0e2723;strokeColor=none;fillColor=#defefa;gradientColor=#7dbbb2;" parent="1" vertex="1">
                    <mxGeometry x="638" y="428" width="200" height="70" as="geometry"/>
                </mxCell>
                <mxCell id="24" value="&lt;font&gt;&lt;span style=&quot;font-size: 17px&quot;&gt;&lt;b&gt;Envoyer un mail&lt;br&gt;au demandeur&lt;/b&gt;&lt;/span&gt;&lt;span style=&quot;font-size: 0px ; color: rgba(0 , 0 , 0 , 0) ; font-family: monospace&quot;&gt;%3CmxGraphModel%3E%3Croot%3E%3CmxCell%20id%3D%220%22%2F%3E%3CmxCell%20id%3D%221%22%20parent%3D%220%22%2F%3E%3CmxCell%20id%3D%222%22%20value%3D%22%26lt%3Bfont%20style%3D%26quot%3Bfont-size%3A%2017px%26quot%3B%26gt%3B%26lt%3Bb%26gt%3BR%C3%A9cup%C3%A9rer%20son%26lt%3Bbr%26gt%3Bmot%20de%20passe%26lt%3Bbr%26gt%3B%26lt%3B%2Fb%26gt%3B%26lt%3B%2Ffont%26gt%3B%22%20style%3D%22ellipse%3BwhiteSpace%3Dwrap%3Bhtml%3D1%3Brounded%3D1%3BstrokeWidth%3D3%3BfontColor%3D%230e2723%3BstrokeColor%3Dnone%3BfillColor%3D%23defefa%3BgradientColor%3D%237dbbb2%3B%22%20vertex%3D%221%22%20parent%3D%221%22%3E%3CmxGeometry%20x%3D%22315%22%20y%3D%22280%22%20width%3D%22200%22%20height%3D%2270%22%20as%3D%22geometry%22%2F%3E%3C%2FmxCell%3E%3C%2Froot%3E%3C%2FmxGraphModel%3Eua&lt;/span&gt;&lt;b style=&quot;font-size: 17px&quot;&gt;&lt;br&gt;&lt;/b&gt;&lt;/font&gt;" style="ellipse;whiteSpace=wrap;html=1;rounded=1;strokeWidth=3;fontColor=#0e2723;strokeColor=none;fillColor=#defefa;gradientColor=#7dbbb2;" parent="1" vertex="1">
                    <mxGeometry x="638" y="538" width="200" height="70" as="geometry"/>
                </mxCell>
                <mxCell id="25" value="" style="endArrow=classic;html=1;fontColor=#0e2723;strokeColor=#0E2723;strokeWidth=3;entryX=0;entryY=0.5;entryDx=0;entryDy=0;exitX=1;exitY=0.5;exitDx=0;exitDy=0;dashed=1;" parent="1" source="18" target="21" edge="1">
                    <mxGeometry width="50" height="50" relative="1" as="geometry">
                        <mxPoint x="528" y="328" as="sourcePoint"/>
                        <mxPoint x="578" y="278" as="targetPoint"/>
                    </mxGeometry>
                </mxCell>
                <mxCell id="26" value="" style="endArrow=classic;html=1;fontColor=#0e2723;strokeColor=#0E2723;strokeWidth=3;exitX=1;exitY=0.5;exitDx=0;exitDy=0;dashed=1;entryX=0;entryY=0.5;entryDx=0;entryDy=0;" parent="1" source="20" target="24" edge="1">
                    <mxGeometry width="50" height="50" relative="1" as="geometry">
                        <mxPoint x="525" y="363" as="sourcePoint"/>
                        <mxPoint x="628" y="528" as="targetPoint"/>
                    </mxGeometry>
                </mxCell>
                <mxCell id="27" value="" style="endArrow=classic;html=1;fontColor=#0e2723;strokeColor=#0E2723;strokeWidth=3;entryX=0;entryY=0.5;entryDx=0;entryDy=0;exitX=1;exitY=0.5;exitDx=0;exitDy=0;dashed=1;" parent="1" source="19" target="22" edge="1">
                    <mxGeometry width="50" height="50" relative="1" as="geometry">
                        <mxPoint x="535" y="373" as="sourcePoint"/>
                        <mxPoint x="658" y="373" as="targetPoint"/>
                    </mxGeometry>
                </mxCell>
                <mxCell id="29" value="" style="endArrow=none;html=1;fontColor=#0e2723;strokeWidth=3;strokeColor=#830C17;exitX=0;exitY=0.5;exitDx=0;exitDy=0;" parent="1" source="16" edge="1">
                    <mxGeometry width="50" height="50" relative="1" as="geometry">
                        <mxPoint x="550" y="500" as="sourcePoint"/>
                        <mxPoint x="120" y="270" as="targetPoint"/>
                    </mxGeometry>
                </mxCell>
                <mxCell id="30" value="" style="endArrow=none;html=1;fontColor=#0e2723;strokeWidth=3;strokeColor=#830C17;exitX=0;exitY=0.5;exitDx=0;exitDy=0;" parent="1" source="18" edge="1">
                    <mxGeometry width="50" height="50" relative="1" as="geometry">
                        <mxPoint x="328.5" y="282" as="sourcePoint"/>
                        <mxPoint x="120" y="270" as="targetPoint"/>
                    </mxGeometry>
                </mxCell>
                <mxCell id="31" value="" style="endArrow=none;html=1;fontColor=#0e2723;strokeWidth=3;strokeColor=#830C17;exitX=0;exitY=0.5;exitDx=0;exitDy=0;" parent="1" source="19" edge="1">
                    <mxGeometry width="50" height="50" relative="1" as="geometry">
                        <mxPoint x="338.5" y="292" as="sourcePoint"/>
                        <mxPoint x="120" y="270" as="targetPoint"/>
                    </mxGeometry>
                </mxCell>
                <mxCell id="32" value="" style="endArrow=none;html=1;fontColor=#0e2723;strokeWidth=3;strokeColor=#830C17;exitX=0;exitY=0.5;exitDx=0;exitDy=0;" parent="1" source="16" edge="1">
                    <mxGeometry width="50" height="50" relative="1" as="geometry">
                        <mxPoint x="348.5" y="302" as="sourcePoint"/>
                        <mxPoint x="120" y="440" as="targetPoint"/>
                    </mxGeometry>
                </mxCell>
                <mxCell id="33" value="" style="endArrow=none;html=1;fontColor=#0e2723;strokeWidth=3;strokeColor=#830C17;exitX=0;exitY=0.5;exitDx=0;exitDy=0;" parent="1" source="18" edge="1">
                    <mxGeometry width="50" height="50" relative="1" as="geometry">
                        <mxPoint x="328.5" y="282" as="sourcePoint"/>
                        <mxPoint x="120" y="440" as="targetPoint"/>
                    </mxGeometry>
                </mxCell>
                <mxCell id="34" value="" style="endArrow=none;html=1;fontColor=#0e2723;strokeWidth=3;strokeColor=#830C17;exitX=0;exitY=0.5;exitDx=0;exitDy=0;" parent="1" source="19" edge="1">
                    <mxGeometry width="50" height="50" relative="1" as="geometry">
                        <mxPoint x="338.5" y="292" as="sourcePoint"/>
                        <mxPoint x="120" y="440" as="targetPoint"/>
                    </mxGeometry>
                </mxCell>
                <mxCell id="35" value="" style="endArrow=none;html=1;fontColor=#0e2723;strokeWidth=3;strokeColor=#830C17;exitX=0;exitY=0.5;exitDx=0;exitDy=0;" parent="1" source="18" edge="1">
                    <mxGeometry width="50" height="50" relative="1" as="geometry">
                        <mxPoint x="328.5" y="512" as="sourcePoint"/>
                        <mxPoint x="120" y="610" as="targetPoint"/>
                    </mxGeometry>
                </mxCell>
                <mxCell id="36" value="" style="endArrow=none;html=1;fontColor=#0e2723;strokeWidth=3;strokeColor=#830C17;exitX=0;exitY=0.5;exitDx=0;exitDy=0;" parent="1" source="16" edge="1">
                    <mxGeometry width="50" height="50" relative="1" as="geometry">
                        <mxPoint x="338.5" y="522" as="sourcePoint"/>
                        <mxPoint x="120" y="610" as="targetPoint"/>
                    </mxGeometry>
                </mxCell>
                <mxCell id="37" value="" style="endArrow=none;html=1;fontColor=#0e2723;strokeWidth=3;strokeColor=#830C17;exitX=0;exitY=0.5;exitDx=0;exitDy=0;" parent="1" source="20" edge="1">
                    <mxGeometry width="50" height="50" relative="1" as="geometry">
                        <mxPoint x="328.5" y="402" as="sourcePoint"/>
                        <mxPoint x="120" y="610" as="targetPoint"/>
                    </mxGeometry>
                </mxCell>
                <mxCell id="38" value="&lt;font style=&quot;font-size: 17px&quot;&gt;&lt;b&gt;Supprimer un compte&lt;br&gt;&lt;/b&gt;&lt;/font&gt;" style="ellipse;whiteSpace=wrap;html=1;rounded=1;strokeWidth=3;fontColor=#0e2723;strokeColor=none;fillColor=#defefa;gradientColor=#7dbbb2;" vertex="1" parent="1">
                    <mxGeometry x="315" y="648" width="200" height="70" as="geometry"/>
                </mxCell>
                <mxCell id="39" value="" style="endArrow=none;html=1;fontColor=#0e2723;strokeWidth=3;strokeColor=#830C17;exitX=0;exitY=0.5;exitDx=0;exitDy=0;" edge="1" parent="1" source="38">
                    <mxGeometry width="50" height="50" relative="1" as="geometry">
                        <mxPoint x="325" y="583" as="sourcePoint"/>
                        <mxPoint x="120" y="610" as="targetPoint"/>
                    </mxGeometry>
                </mxCell>
                <mxCell id="40" value="&lt;font&gt;&lt;span style=&quot;font-size: 17px&quot;&gt;&lt;b&gt;Envoyer un mail&lt;br&gt;au titulaire&lt;/b&gt;&lt;/span&gt;&lt;span style=&quot;font-size: 0px ; color: rgba(0 , 0 , 0 , 0) ; font-family: monospace&quot;&gt;%3CmxGraphModel%3E%3Croot%3E%3CmxCell%20id%3D%220%22%2F%3E%3CmxCell%20id%3D%221%22%20parent%3D%220%22%2F%3E%3CmxCell%20id%3D%222%22%20value%3D%22%26lt%3Bfont%20style%3D%26quot%3Bfont-size%3A%2017px%26quot%3B%26gt%3B%26lt%3Bb%26gt%3BR%C3%A9cup%C3%A9rer%20son%26lt%3Bbr%26gt%3Bmot%20de%20passe%26lt%3Bbr%26gt%3B%26lt%3B%2Fb%26gt%3B%26lt%3B%2Ffont%26gt%3B%22%20style%3D%22ellipse%3BwhiteSpace%3Dwrap%3Bhtml%3D1%3Brounded%3D1%3BstrokeWidth%3D3%3BfontColor%3D%230e2723%3BstrokeColor%3Dnone%3BfillColor%3D%23defefa%3BgradientColor%3D%237dbbb2%3B%22%20vertex%3D%221%22%20parent%3D%221%22%3E%3CmxGeometry%20x%3D%22315%22%20y%3D%22280%22%20width%3D%22200%22%20height%3D%2270%22%20as%3D%22geometry%22%2F%3E%3C%2FmxCell%3E%3C%2Froot%3E%3C%2FmxGraphModel%3Eua&lt;/span&gt;&lt;b style=&quot;font-size: 17px&quot;&gt;&lt;br&gt;&lt;/b&gt;&lt;/font&gt;" style="ellipse;whiteSpace=wrap;html=1;rounded=1;strokeWidth=3;fontColor=#0e2723;strokeColor=none;fillColor=#defefa;gradientColor=#7dbbb2;" vertex="1" parent="1">
                    <mxGeometry x="638" y="648" width="200" height="70" as="geometry"/>
                </mxCell>
                <mxCell id="41" value="" style="endArrow=classic;html=1;fontColor=#0e2723;strokeColor=#0E2723;strokeWidth=3;exitX=1;exitY=0.5;exitDx=0;exitDy=0;dashed=1;entryX=0;entryY=0.5;entryDx=0;entryDy=0;" edge="1" parent="1" source="38" target="40">
                    <mxGeometry width="50" height="50" relative="1" as="geometry">
                        <mxPoint x="525" y="583" as="sourcePoint"/>
                        <mxPoint x="648" y="583" as="targetPoint"/>
                    </mxGeometry>
                </mxCell>
                <mxCell id="42" value="&lt;font style=&quot;font-size: 17px&quot;&gt;&lt;b&gt;Accéder à l'appli&lt;/b&gt;&lt;/font&gt;" style="ellipse;whiteSpace=wrap;html=1;rounded=1;strokeWidth=3;fontColor=#0e2723;strokeColor=none;fillColor=#defefa;gradientColor=#7dbbb2;" vertex="1" parent="1">
                    <mxGeometry x="638" y="198" width="200" height="70" as="geometry"/>
                </mxCell>
                <mxCell id="43" value="" style="endArrow=classic;html=1;fontColor=#0e2723;strokeColor=#0E2723;strokeWidth=3;entryX=0;entryY=0.5;entryDx=0;entryDy=0;exitX=1;exitY=0.5;exitDx=0;exitDy=0;dashed=1;" edge="1" parent="1" source="16" target="42">
                    <mxGeometry width="50" height="50" relative="1" as="geometry">
                        <mxPoint x="525" y="363" as="sourcePoint"/>
                        <mxPoint x="648" y="363" as="targetPoint"/>
                    </mxGeometry>
                </mxCell>
            </root>
        </mxGraphModel>
    </diagram>
</mxfile>